<svg xmlns="http://www.w3.org/2000/svg" viewBox="0 0 760 520" role="img" aria-label="Clinic dashboard illustration">
  <defs>
    <linearGradient id="bg" x1="0" y1="0" x2="1" y2="1">
      <stop offset="0%" stop-color="#e8f1ff"/>
      <stop offset="100%" stop-color="#eefcf8"/>
    </linearGradient>
    <linearGradient id="accent" x1="0" y1="0" x2="1" y2="1">
      <stop offset="0%" stop-color="#1463ff"/>
      <stop offset="100%" stop-color="#00a7a0"/>
    </linearGradient>
  </defs>
  <rect width="760" height="520" rx="36" fill="url(#bg)"/>
  <rect x="40" y="56" width="680" height="408" rx="28" fill="#ffffff"/>
  <rect x="72" y="90" width="220" height="320" rx="24" fill="#f6f9fd"/>
  <rect x="320" y="90" width="368" height="160" rx="24" fill="#f6f9fd"/>
  <rect x="320" y="274" width="176" height="136" rx="24" fill="#f6f9fd"/>
  <rect x="512" y="274" width="176" height="136" rx="24" fill="#f6f9fd"/>
  <circle cx="182" cy="188" r="56" fill="#dce8f8"/>
  <path d="M166 166h12v16h16v12h-16v16h-12v-16h-16v-12h16z" fill="url(#accent)"/>
  <rect x="120" y="278" width="124" height="14" rx="7" fill="#dce8f8"/>
  <rect x="104" y="308" width="160" height="12" rx="6" fill="#e5edf8"/>
  <rect x="104" y="334" width="160" height="12" rx="6" fill="#e5edf8"/>
  <rect x="104" y="360" width="128" height="12" rx="6" fill="#e5edf8"/>
  <rect x="356" y="128" width="180" height="20" rx="10" fill="#dce8f8"/>
  <rect x="356" y="166" width="296" height="12" rx="6" fill="#e5edf8"/>
  <rect x="356" y="192" width="250" height="12" rx="6" fill="#e5edf8"/>
  <path d="M356 382c34-10 55-35 66-74 11 26 30 44 58 54 19 6 37 7 52 6v22H356v-8z" fill="url(#accent)" opacity="0.18"/>
  <path d="M548 382c22-6 35-19 45-42 12 21 25 34 44 39v11h-89z" fill="url(#accent)" opacity="0.18"/>
  <circle cx="590" cy="322" r="28" fill="#dfeaf8"/>
  <circle cx="590" cy="322" r="14" fill="url(#accent)"/>
</svg>
