<svg xmlns="http://www.w3.org/2000/svg" viewBox="0 0 760 520" role="img" aria-label="Service dashboard illustration">
  <defs>
    <linearGradient id="bg2" x1="0" y1="0" x2="1" y2="1">
      <stop offset="0%" stop-color="#eef4ff"/>
      <stop offset="100%" stop-color="#f2fffb"/>
    </linearGradient>
    <linearGradient id="line" x1="0" y1="0" x2="1" y2="1">
      <stop offset="0%" stop-color="#1463ff"/>
      <stop offset="100%" stop-color="#00a7a0"/>
    </linearGradient>
  </defs>
  <rect width="760" height="520" rx="36" fill="url(#bg2)"/>
  <rect x="48" y="52" width="664" height="416" rx="28" fill="#fff"/>
  <rect x="86" y="92" width="588" height="60" rx="18" fill="#f5f9fe"/>
  <rect x="116" y="112" width="170" height="20" rx="10" fill="#dde8f8"/>
  <rect x="86" y="184" width="180" height="228" rx="24" fill="#f7fbff"/>
  <rect x="290" y="184" width="180" height="228" rx="24" fill="#f7fbff"/>
  <rect x="494" y="184" width="180" height="228" rx="24" fill="#f7fbff"/>
  <circle cx="176" cy="238" r="26" fill="#dce8f8"/>
  <circle cx="380" cy="238" r="26" fill="#dce8f8"/>
  <circle cx="584" cy="238" r="26" fill="#dce8f8"/>
  <path d="M165 238h22" stroke="url(#line)" stroke-width="8" stroke-linecap="round"/>
  <path d="M176 227v22" stroke="url(#line)" stroke-width="8" stroke-linecap="round"/>
  <path d="M368 244c9-19 17-32 27-32 10 0 15 10 23 26 7 13 12 18 21 18" fill="none" stroke="url(#line)" stroke-width="8" stroke-linecap="round" stroke-linejoin="round"/>
  <path d="M574 226h20v24h-20z" fill="url(#line)" opacity="0.85"/>
  <rect x="120" y="286" width="110" height="12" rx="6" fill="#dde8f8"/>
  <rect x="324" y="286" width="110" height="12" rx="6" fill="#dde8f8"/>
  <rect x="528" y="286" width="110" height="12" rx="6" fill="#dde8f8"/>
  <rect x="112" y="316" width="128" height="10" rx="5" fill="#e8eff8"/>
  <rect x="112" y="338" width="128" height="10" rx="5" fill="#e8eff8"/>
  <rect x="112" y="360" width="96" height="10" rx="5" fill="#e8eff8"/>
  <rect x="316" y="316" width="128" height="10" rx="5" fill="#e8eff8"/>
  <rect x="316" y="338" width="128" height="10" rx="5" fill="#e8eff8"/>
  <rect x="316" y="360" width="96" height="10" rx="5" fill="#e8eff8"/>
  <rect x="520" y="316" width="128" height="10" rx="5" fill="#e8eff8"/>
  <rect x="520" y="338" width="128" height="10" rx="5" fill="#e8eff8"/>
  <rect x="520" y="360" width="96" height="10" rx="5" fill="#e8eff8"/>
</svg>
